# xmcd
#
# Track frame offsets:
#	150
#	15680
#	34999
#	51903
#	71036
#	87076
#	104154
#	117810
#	137993
#	154144
#	173700
#	194693
#	211604
#
# Disc length: 3052 seconds
#
# Revision: 1
# Processed by: cddbd v1.5.2PL0 Copyright (c) Steve Scherf et al.
# Submitted via: audiograbber 1.83.01
#
DISCID=bb0bea0d
DTITLE=Ronnie Milsap - The Duets
DYEAR=2019
DGENRE=Country
TTITLE0=Southern Boys and Detroit Wheels ( feat. Billy Gibbons )
TTITLE1=Stranger In My House ( feat. Luke Bryan )
TTITLE2=Smoky Mountain Rain ( feat. Dolly Parton )
TTITLE3=Prisoner Of The Highway ( feat. Jason Aldean )
TTITLE4=A Woman's Love ( feat. Willie Nelson )
TTITLE5=Happy Happy Birthday Baby ( feat. Lucy Angel )
TTITLE6=No Getting Over Me ( feat. Kacey Musgraves )
TTITLE7=Lost In The Fifties ( feat. Little Big Town )
TTITLE8=Houston Solution ( feat. George Strait )
TTITLE9=What A Woman Can Mean To A Man ( feat. Jessie Key )
TTITLE10=Misery Loves Company ( feat. Leon Russell )
TTITLE11=You're Nobody ( Till You Love Somebody ) ( feat. Steven Curtis Chapman
TTITLE11=)
TTITLE12=Shakey Ground ( feat. Montgomery Gentry )
EXTD=
EXTT0=
EXTT1=
EXTT2=
EXTT3=
EXTT4=
EXTT5=
EXTT6=
EXTT7=
EXTT8=
EXTT9=
EXTT10=
EXTT11=
EXTT12=
PLAYORDER=
